<svg width="24" height="24" viewBox="0 0 24 24" fill="none" xmlns="http://www.w3.org/2000/svg" aria-hidden="true">
  <path d="M19.8 22.6L15.6 18.45C15.0167 18.6333 14.4293 18.771 13.838 18.863C13.246 18.9543 12.6333 19 12 19C9.48333 19 7.24167 18.3043 5.275 16.913C3.30833 15.521 1.88333 13.7167 1 11.5C1.35 10.6167 1.79167 9.79567 2.325 9.037C2.85833 8.279 3.46667 7.6 4.15 7L1.4 4.2L2.8 2.8L21.2 21.2L19.8 22.6ZM12 16C12.1833 16 12.354 15.9917 12.512 15.975C12.6707 15.9583 12.8417 15.925 13.025 15.875L7.625 10.475C7.575 10.6583 7.54167 10.8293 7.525 10.988C7.50833 11.146 7.5 11.3167 7.5 11.5C7.5 12.75 7.93733 13.8127 8.812 14.688C9.68733 15.5627 10.75 16 12 16ZM19.3 16.45L16.125 13.3C16.2417 13.0167 16.3333 12.7293 16.4 12.438C16.4667 12.146 16.5 11.8333 16.5 11.5C16.5 10.25 16.0627 9.18733 15.188 8.312C14.3127 7.43733 13.25 7 12 7C11.6667 7 11.354 7.03333 11.062 7.1C10.7707 7.16667 10.4833 7.26667 10.2 7.4L7.65 4.85C8.33333 4.56667 9.03333 4.354 9.75 4.212C10.4667 4.07067 11.2167 4 12 4C14.5167 4 16.7583 4.69567 18.725 6.087C20.6917 7.479 22.1167 9.28333 23 11.5C22.6167 12.4833 22.1127 13.396 21.488 14.238C20.8627 15.0793 20.1333 15.8167 19.3 16.45ZM14.675 11.85L11.675 8.85C12.1417 8.76667 12.571 8.804 12.963 8.962C13.3543 9.12067 13.6917 9.35 13.975 9.65C14.2583 9.95 14.4627 10.296 14.588 10.688C14.7127 11.0793 14.7417 11.4667 14.675 11.85Z" fill="currentColor"/>
</svg>