<svg width="18" height="28" viewBox="0 0 18 28" fill="none" xmlns="http://www.w3.org/2000/svg">
<g clip-path="url(#clip0_10_1505)">
<path d="M17.4713 19.7639C18.1744 20.4475 18.1744 21.5576 17.4713 22.2412C16.7682 22.9248 15.6263 22.9248 14.9232 22.2412L9.00007 16.4771L3.07132 22.2357C2.36819 22.9193 1.22632 22.9193 0.523193 22.2357C-0.179932 21.5521 -0.179932 20.442 0.523193 19.7584L6.45194 13.9998L0.528818 8.23574C-0.174307 7.55215 -0.174307 6.44199 0.528818 5.7584C1.23194 5.0748 2.37382 5.0748 3.07694 5.7584L9.00007 11.5225L14.9288 5.76387C15.6319 5.08027 16.7738 5.08027 17.4769 5.76387C18.1801 6.44746 18.1801 7.55762 17.4769 8.24121L11.5482 13.9998L17.4713 19.7639Z" fill="black"/>
</g>
<defs>
<clipPath id="clip0_10_1505">
<rect width="18" height="28" fill="white" transform="matrix(1 0 0 -1 0 28)"/>
</clipPath>
</defs>
</svg>
